<svg class="NavLogo-svgMono" id="NavLogo-mono" xmlns="http://www.w3.org/2000/svg" viewBox="0 0 2220 455">
  <title>logo-white</title><g id="stickers" fill="none" fill-rule="evenodd">
  <g id="Artboard-1" fill="#FFF">
    <g id="logo-white">
      <g id="Rectangle-165-Copy-12-+-Rectangle-165-Copy-4-+-Rectangle-165-Copy-11" stroke="#FFF" stroke-width="8">
        <path class="NavLogo-piece" id="Rectangle-165-Copy-12" d="M156.572052 450l145.742358-87.445415-97.159807-19.432314-48.58255 29.14848L5 284.82533v77.729257L156.572052 450z"/>
        <path class="NavLogo-piece" id="Rectangle-165-Copy-4" d="M157.543668 5L309.11572 92.445415v77.729257L157.54367 82.729258l-48.580786 29.14896L11.80131 92.445416 157.543668 5z"/>
        <path class="NavLogo-piece" id="Rectangle-165-Copy-11" d="M157.543668 188.63537l151.572053 87.445416v77.729258L157.54367 266.36463 5 178.919213v-77.729258l152.543668 87.445415z"/>
      </g>
      <path class="NavLogo-name" id="SUBVISUAL-52-Copy-66-mono" d="M702.627768 167.48094L680.868 180.202534c-4.067984-6.966623-7.944024-11.510004-11.628235-13.63028-3.83772-2.423173-8.788307-3.63474-14.851905-3.63474-7.445178 0-13.623816 2.082382-18.536098 6.24721-4.912283 4.089105-7.368387 9.23827-7.368387 15.44765 0 8.55683 6.447274 15.447624 19.342015 20.67259l17.73018 7.155897c14.42983 5.75504 24.983405 12.77835 31.66104 21.07015 6.677633 8.2918 10.0164 18.45761 10.0164 30.49775 0 16.12925-5.449482 29.4565-16.34861 39.98216-10.97588 10.60138-24.599584 15.90199-40.87152 15.90199-15.427637 0-28.168678-4.50552-38.223507-13.51669-9.90132-9.011173-16.079957-21.69478-18.536098-38.051195l27.170926-5.906456c1.22808 10.298485 3.37717 17.41645 6.44734 21.354104 5.52632 7.572417 13.58541 11.358568 24.17752 11.358568 8.36623 0 15.3124-2.76389 20.83872-8.291753 5.52632-5.527863 8.28944-12.53224 8.28944-21.013347 0-3.407586-.47971-6.53116-1.43914-9.370815-.95943-2.839656-2.45611-5.4521-4.49011-7.83741-2.03399-2.38531-4.66279-4.61914-7.88647-6.701555s-7.06135-4.07014-11.5131-5.96324l-17.15453-7.042318c-24.33115-10.147037-36.49654-24.988748-36.49654-44.52558 0-13.176 5.10409-24.1937 15.312428-33.053428 10.208335-8.93545 22.911-13.40311 38.108374-13.40311 20.49343 0 36.49648 9.843993 48.00964 29.532273zm112.01204-26.124703v105.634666c0 15.069106 2.49448 26.086805 7.483518 33.053428 7.445178 10.07132 17.921998 15.1069 31.430775 15.1069 13.58554 0 24.10073-5.03558 31.54591-15.10689 4.98904-6.73945 7.48352-17.75715 7.48352-33.05342V141.35624h26.82554v112.90415c0 18.47669-5.83325 33.69702-17.49992 45.661434-13.125 13.327454-29.24319 19.99108-48.35504 19.99108-19.11184 0-35.19165-6.663626-48.2399-19.991077-11.66667-11.964416-17.49992-27.184742-17.49992-45.661435V141.35624h26.825536zM1010.23699 316.7325V141.356236h26.71039c11.89694 0 21.37597.908677 28.43738 2.726056 7.13816 1.81738 13.16329 4.884162 18.07557 9.20044 4.98903 4.467724 8.94183 10.033366 11.8585 16.69709 2.99342 6.73945 4.49011 13.554522 4.49011 20.44542 0 12.57021-4.87383 23.209294-14.62164 31.91757 9.44079 3.180415 16.88585 8.746057 22.33542 16.697093 5.52632 7.875312 8.28943 17.037797 8.28943 27.48773 0 13.706072-4.9122 25.291694-14.73677 34.757213-5.91008 5.830758-12.54925 9.88194-19.91766 12.153664-8.05923 2.196-18.15228 3.293985-30.27947 3.293985h-40.64126zm26.82553-100.06897h8.40456c9.97808 0 17.28883-2.177036 21.93247-6.531175 4.64364-4.35414 6.96542-10.771665 6.96542-19.25277 0-8.253932-2.37934-14.520012-7.13812-18.798426-4.75877-4.27842-11.66656-6.4176-20.72358-6.4176h-9.44075v50.99996zm0 75.19371h16.57887c12.1272 0 21.03058-2.347415 26.7104-7.042313 5.98684-5.073517 8.98022-11.509974 8.98022-19.309562 0-7.572415-2.87824-13.933148-8.63482-19.08239-5.60307-5.07352-15.61938-7.61024-30.04921-7.61024h-13.58546v53.044504zm163.01509-150.501003l49.16096 121.536658 49.85174-121.536658h29.35842l-79.78581 188.552198-77.94372-188.552198h29.35841zm225.53126 0V316.7325h-26.82554V141.356236h26.82554zm191.45246 26.124703l-21.75977 12.721594c-4.06799-6.966623-7.94403-11.510004-11.62824-13.63028-3.83772-2.423173-8.7883-3.63474-14.8519-3.63474-7.44518 0-13.62382 2.082382-18.5361 6.24721-4.91229 4.089105-7.36839 9.23827-7.36839 15.44765 0 8.55683 6.44728 15.447624 19.34201 20.67259l17.73019 7.155897c14.42983 5.75504 24.9834 12.77835 31.66103 21.07015 6.67764 8.2918 10.01641 18.45761 10.01641 30.49775 0 16.12925-5.44948 29.4565-16.34861 39.98216-10.97588 10.60138-24.59959 15.90199-40.87153 15.90199-15.42763 0-28.16867-4.50552-38.2235-13.51669-9.90132-9.011173-16.07996-21.69478-18.5361-38.051195l27.17093-5.906456c1.22807 10.298485 3.37716 17.41645 6.44734 21.354104 5.52632 7.572417 13.58541 11.358568 24.17752 11.358568 8.36623 0 15.3124-2.76389 20.83872-8.291753 5.52631-5.527863 8.28943-12.53224 8.28943-21.013347 0-3.407586-.4797-6.53116-1.43914-9.370815-.95943-2.839656-2.45611-5.4521-4.49011-7.83741-2.03399-2.38531-4.66279-4.61914-7.88647-6.701555-3.22369-2.08241-7.06135-4.07014-11.51311-5.96324l-17.15453-7.042314c-24.33114-10.147036-36.49654-24.988747-36.49654-44.52558 0-13.176 5.1041-24.1937 15.31243-33.053427 10.20834-8.93545 22.911-13.40311 38.10838-13.40311 20.49342 0 36.49649 9.843993 48.00965 29.532273zm112.01203-26.124703v105.634666c0 15.069106 2.49448 26.086805 7.48353 33.053428 7.44517 10.07132 17.922 15.1069 31.43077 15.1069 13.58553 0 24.10072-5.03558 31.54591-15.10689 4.98903-6.73945 7.48351-17.75715 7.48351-33.05342V141.35624h26.82554v112.90415c0 18.47669-5.83325 33.69702-17.49992 45.661434-13.12501 13.327454-29.24319 19.99108-48.35504 19.99108-19.11185 0-35.19166-6.663626-48.23991-19.991077-11.66667-11.964416-17.49992-27.184742-17.49992-45.661435V141.35624h26.82553zm292.42239 132.781638h-76.10162l-19.80254 42.594624h-28.89789l87.96011-186.39408 84.85159 186.39407h-29.35842l-18.65123-42.59463zm-10.93744-24.87526l-26.36501-59.632472-27.63145 59.632473h53.99646zm156.22235-107.906378V291.85724h52.26949v24.87526h-79.09502V141.356236h26.82553z"/>
    </g>
  </g>
</svg>
