<svg height="40px" xmlns="http://www.w3.org/2000/svg" class="NavLogo-svgMono" viewBox="0 0 2220 455"><g fill="#FFF" fill-rule="evenodd"><path stroke="#FFF" stroke-width="8" d="M156.57 450l145.74-87.45-97.1-19.43-48.6 29.15L5 284.83v77.72L156.57 450zm.97-445l151.58 87.45v77.72L157.54 82.73l-48.58 29.15L11.8 92.45 157.54 5zm0 183.64l151.58 87.44v77.73l-151.58-87.4L5 179v-77.8l152.54 87.44z" class="NavLogo-piece"/><path d="M702.63 167.48l-21.76 12.72c-4.07-6.96-7.95-11.5-11.63-13.63-3.84-2.42-8.8-3.63-14.85-3.63-7.5 0-13.7 2.08-18.6 6.24-4.9 4.1-7.4 9.24-7.4 15.45 0 8.56 6.4 15.45 19.3 20.67l17.7 7.16c14.4 5.76 25 12.78 31.6 21.07 6.6 8.3 10 18.46 10 30.5 0 16.13-5.5 29.46-16.4 39.98-11 10.6-24.6 15.9-40.9 15.9-15.4 0-28.2-4.5-38.2-13.5-9.9-9-16.1-21.7-18.6-38l27.16-5.9c1.25 10.3 3.4 17.4 6.47 21.4 5.52 7.6 13.6 11.4 24.17 11.4 8.4 0 15.3-2.7 20.87-8.3 5.5-5.5 8.27-12.5 8.27-21 0-3.4-.47-6.5-1.4-9.3-.98-2.8-2.48-5.4-4.5-7.8-2.05-2.4-4.67-4.6-7.9-6.7s-7.07-4.02-11.5-5.92l-17.1-7.1c-24.34-10.15-36.5-25-36.5-44.52 0-13.14 5.1-24.2 15.3-33.02 10.22-8.9 22.92-13.4 38.12-13.4 20.5 0 36.5 9.86 48 29.55zm112-26.12V247c0 15.06 2.5 26.08 7.5 33.04 7.44 10.08 17.92 15.1 31.42 15.1 13.6 0 24.1-5.02 31.55-15.1 5-6.74 7.48-17.75 7.48-33.05V141.3h26.83v112.9c0 18.48-5.8 33.7-17.5 45.66-13.1 13.33-29.2 20-48.3 20-19.1 0-35.2-6.67-48.2-20-11.6-11.96-17.5-27.18-17.5-45.66V141.3h26.9zm195.6 175.37V141.36h26.72c11.9 0 21.37.9 28.43 2.72 7.14 1.82 13.17 4.9 18.08 9.2 5 4.47 8.94 10.04 11.86 16.7 3 6.74 4.5 13.55 4.5 20.45 0 12.57-4.88 23.2-14.63 31.9 9.4 3.2 16.8 8.76 22.3 16.7 5.5 7.9 8.3 17.05 8.3 27.5 0 13.7-4.9 25.3-14.8 34.75-5.9 5.84-12.6 9.9-19.9 12.16-8.1 2.2-18.2 3.3-30.3 3.3h-40.7zm26.83-100.07h8.4c10 0 17.3-2.17 21.94-6.53 4.64-4.35 6.96-10.77 6.96-19.25 0-8.25-2.37-14.52-7.13-18.8-4.76-4.28-11.67-6.42-20.73-6.42h-9.44v51zm0 75.2h16.58c12.13 0 21.03-2.35 26.7-7.05 6-5 9-11.5 9-19.3 0-7.5-2.9-13.9-8.64-19-5.6-5-15.62-7.6-30.05-7.6h-13.6V292zm163.02-150.5l49.16 121.53 49.85-121.6h29.3l-79.8 188.5-78-188.6h29.4zm225.53 0v175.37h-26.8V141.36h26.9zm191.5 26.12l-21.7 12.72c-4-6.96-7.9-11.5-11.6-13.63-3.8-2.42-8.7-3.63-14.8-3.63-7.4 0-13.6 2.08-18.5 6.24-4.9 4.1-7.4 9.24-7.4 15.45 0 8.56 6.5 15.45 19.4 20.67l17.8 7.16c14.4 5.76 24.98 12.78 31.66 21.07 6.7 8.3 10.03 18.46 10.03 30.5 0 16.13-5.46 29.46-16.36 39.98-11 10.6-24.6 15.9-40.86 15.9-15.42 0-28.16-4.5-38.22-13.5-9.9-9-16.06-21.7-18.5-38l27.16-5.9c1.23 10.3 3.37 17.4 6.45 21.4 5.55 7.6 13.6 11.4 24.2 11.4 8.36 0 15.3-2.7 20.83-8.3 5.55-5.5 8.3-12.5 8.3-21 0-3.4-.5-6.5-1.4-9.3-1-2.8-2.48-5.4-4.5-7.8-2-2.4-4.68-4.6-7.9-6.7-3.24-2.1-7.08-4.02-11.5-5.92l-17.2-7.06c-24.37-10.15-36.5-25-36.5-44.52 0-13.13 5.1-24.2 15.3-33 10.2-8.93 22.9-13.4 38.1-13.4 20.5 0 36.5 9.84 48 29.53zm112-26.12V247c0 15.06 2.5 26.08 7.5 33.04 7.5 10.08 17.9 15.1 31.5 15.1 13.6 0 24.1-5.02 31.6-15.1 5-6.74 7.5-17.75 7.5-33.05V141.3h26.8v112.9c0 18.48-5.8 33.7-17.5 45.66-13.1 13.33-29.2 20-48.3 20-19.1 0-35.2-6.67-48.2-20-11.7-11.96-17.5-27.18-17.5-45.66V141.3h26.8zm292.5 132.78h-76.1l-19.8 42.6h-28.9l88-186.4 84.9 186.4h-29.3l-18.6-42.6zm-10.9-24.88l-26.3-59.63-27.6 59.63h54zm156.2-107.9v150.5h52.3v24.87H2140V141.36h26.83z" class="NavLogo-name"/></g></svg>
